<svg xmlns="http://www.w3.org/2000/svg" xmlns:xlink="http://www.w3.org/1999/xlink" width="138" height="12" viewBox="0 0 138 12">
    <defs>
        <path id="a" d="M.188.077h114.68V3H.188z"/>
        <path id="c" d="M0 .025h2.783v2.77H0z"/>
    </defs>
    <g fill="none" fill-rule="evenodd">
        <path fill="#0966B1" d="M42.447 8h58.107c1.927 0 1.93-3 0-3H42.445c-1.927 0-1.93 3 0 3M32.497 8h6.006c1.994 0 1.998-3 0-3h-6.006c-1.994 0-1.997 3 0 3M104.497 8h6.006c1.994 0 1.998-3 0-3h-6.006c-1.994 0-1.997 3 0 3M53.438 12H92.562c1.916 0 1.919-3 0-3H53.438c-1.916 0-1.919 3 0 3"/>
        <g transform="translate(11)">
            <mask id="b" fill="#fff">
                <use xlink:href="#a"/>
            </mask>
            <path fill="#231F20" d="M1.628 2.923h98.07c4.501 0 9.047.172 13.545 0 .062-.002.123 0 .185 0 1.918 0 1.921-2.77 0-2.77h-98.07c-4.501 0-9.047-.172-13.545 0-.062.003-.124 0-.185 0-1.918 0-1.921 2.77 0 2.77" mask="url(#b)"/>
        </g>
        <path fill="#231F20" d="M5.516 3h3.969c2.018 0 2.022-3 0-3h-3.97c-2.019 0-2.022 3 0 3M128.515 3h3.97c2.018 0 2.022-3 0-3h-3.97c-2.019 0-2.022 3 0 3M138 1.516v-.032c0-.38-.167-.78-.44-1.049-.26-.257-.686-.45-1.06-.434-.388.017-.79.143-1.06.434-.27.29-.44.647-.44 1.05v.03c0 .381.167.78.44 1.05.26.257.686.45 1.06.434.388-.017.79-.143 1.06-.434.27-.29.44-.648.44-1.05"/>
        <g>
            <mask id="d" fill="#fff">
                <use xlink:href="#c"/>
            </mask>
            <path fill="#231F20" d="M1.398.025h-.013C1.031.025.658.18.407.431c-.24.24-.422.634-.406.979.016.358.133.73.406.979.27.249.603.405.978.405h.013c.355 0 .728-.154.979-.405.24-.24.42-.634.405-.98-.016-.357-.133-.729-.405-.978-.271-.249-.604-.406-.98-.406" mask="url(#d)"/>
        </g>
    </g>
</svg>
