<svg xmlns="http://www.w3.org/2000/svg" width="542" height="400" viewBox="0 0 542 400">
    <defs>
        <path id="a" d="M109.327 262.707c-7.653 5.874-15.2 11.914-21.878 18.896-13.732 14.352-24.85 34.908-17.731 55.082 6.947 19.684 25.772 34.696 43.022 45.128 18.06 10.92 37.63 18.998 56.696 27.94 18.82 8.826 40.305 18.226 40.316 42.223.021 43.762-16.362 92.515 12.65 131.255 12.602 16.828 32.788 26.522 52.624 31.895 11.964 3.243 24.373 5.367 36.748 5.374h.156c8.286-.007 16.557-.966 24.664-3.177 41.608-11.343 71.69-47.762 91.573-84.222 19.92-36.521 33.447-77.586 33.333-119.525-.127-44.656-15.678-88.99-48.065-120.406-28.213-27.368-64.634-46.383-102.431-56.519-22.761-6.102-46.28-9.151-69.772-9.151-46.073 0-92.036 11.737-131.905 35.207"/>
        <linearGradient id="b" x1="64.365%" x2="0%" y1=".253%" y2="99.747%">
            <stop offset="0%" stop-color="#4BDCFF"/>
            <stop offset="100%" stop-color="#05A1F7"/>
        </linearGradient>
        <path id="c" d="M384.953 429.353c-106.334 91.41-252.059 95.958-325.488 10.16-73.427-85.799-46.752-229.456 59.58-320.866 106.335-91.41 252.06-95.958 325.489-10.16"/>
        <path id="d" d="M541.535.5c-3.69.016-7.556.286-11.601.828C497.08 5.73 465.525 21.37 440.012 37.35c-26.32 16.484-49.381 35.072-73.725 52.792-24.316 17.698-51.695 36.87-83.155 48.3-18.598 6.754-36.404 7.591-53.987 4.37-17.221-3.16-33.453-7.993-49.248-12.928-32.192-10.056-62.96-21.924-97.44-29.32-15.898-3.41-34.43-6.585-52.883-2.363-17.035 3.895-26.273 14.23-28.389 25.07-2.21 11.322 1.37 22.091 4.469 32.49a327.337 327.337 0 0 0 14.413 39.037c11.362 25.668 26.339 50.2 44.344 73.397.734.948.734 1.913.268 2.792 5.409 10.567 6.12 22.316 8.355 33.746 2.036 10.42 6.21 20.536 17.034 27.518 4.644 2.995 10.554 5.201 17.502 5.672 8.303.565 16.963-1.647 25.2-4.009 16.748-4.797 33.42-9.896 49.077-5.472 12.673 3.58 20.154 11.888 26.518 19.625 8.093 9.845 16.509 19.26 27.266 27.757 11.179 8.828 23.784 16.766 37.05 24.175 13.49 7.535 27.694 14.508 42.01 21.383 12.993 6.24 25.959 12.549 40.077 17.786 26.964 10.002 60.44 15.578 94.476 3.335 32.433-11.668 56.518-33.851 67.255-56.228 26.966-56.21-14.162-105.423-17.947-157.762-.772-10.698-1.995-24.048 13.654-32.869 7.058-3.979 15.47-6.16 23.649-8.226 8.266-2.084 16.146-4.405 23.818-7.722 33.421-14.452 53.546-39.372 59.922-63.288a85.56 85.56 0 0 0 2.905-21.727v-.788c-.086-18.678-6.262-36.689-16.644-52.51-7.298-11.12-16.691-21.793-28.912-30.458C567.602 4.3 556.167.558 542.217.5h-.682z"/>
        <linearGradient id="e" x1="77.481%" x2="24.807%" y1="74.83%" y2="6.079%">
            <stop offset="0%" stop-color="#4BDCFF"/>
            <stop offset="100%" stop-color="#05A1F7"/>
        </linearGradient>
    </defs>
    <g fill="none" fill-rule="evenodd">
        <path fill="url(#b)" d="M109.327 262.707c-7.653 5.874-15.2 11.914-21.878 18.896-13.732 14.352-24.85 34.908-17.731 55.082 6.947 19.684 25.772 34.696 43.022 45.128 18.06 10.92 37.63 18.998 56.696 27.94 18.82 8.826 40.305 18.226 40.316 42.223.021 43.762-16.362 92.515 12.65 131.255 12.602 16.828 32.788 26.522 52.624 31.895 11.964 3.243 24.373 5.367 36.748 5.374h.156c8.286-.007 16.557-.966 24.664-3.177 41.608-11.343 71.69-47.762 91.573-84.222 19.92-36.521 33.447-77.586 33.333-119.525-.127-44.656-15.678-88.99-48.065-120.406-28.213-27.368-64.634-46.383-102.431-56.519-22.761-6.102-46.28-9.151-69.772-9.151-46.073 0-92.036 11.737-131.905 35.207" transform="rotate(90 422 199)"/>
        <path fill="url(#e)" d="M541.535.5c-3.69.016-7.556.286-11.601.828C497.08 5.73 465.525 21.37 440.012 37.35c-26.32 16.484-49.381 35.072-73.725 52.792-24.316 17.698-51.695 36.87-83.155 48.3-18.598 6.754-36.404 7.591-53.987 4.37-17.221-3.16-33.453-7.993-49.248-12.928-32.192-10.056-62.96-21.924-97.44-29.32-15.898-3.41-34.43-6.585-52.883-2.363-17.035 3.895-26.273 14.23-28.389 25.07-2.21 11.322 1.37 22.091 4.469 32.49a327.337 327.337 0 0 0 14.413 39.037c11.362 25.668 26.339 50.2 44.344 73.397.734.948.734 1.913.268 2.792 5.409 10.567 6.12 22.316 8.355 33.746 2.036 10.42 6.21 20.536 17.034 27.518 4.644 2.995 10.554 5.201 17.502 5.672 8.303.565 16.963-1.647 25.2-4.009 16.748-4.797 33.42-9.896 49.077-5.472 12.673 3.58 20.154 11.888 26.518 19.625 8.093 9.845 16.509 19.26 27.266 27.757 11.179 8.828 23.784 16.766 37.05 24.175 13.49 7.535 27.694 14.508 42.01 21.383 12.993 6.24 25.959 12.549 40.077 17.786 26.964 10.002 60.44 15.578 94.476 3.335 32.433-11.668 56.518-33.851 67.255-56.228 26.966-56.21-14.162-105.423-17.947-157.762-.772-10.698-1.995-24.048 13.654-32.869 7.058-3.979 15.47-6.16 23.649-8.226 8.266-2.084 16.146-4.405 23.818-7.722 33.421-14.452 53.546-39.372 59.922-63.288a85.56 85.56 0 0 0 2.905-21.727v-.788c-.086-18.678-6.262-36.689-16.644-52.51-7.298-11.12-16.691-21.793-28.912-30.458C567.602 4.3 556.167.558 542.217.5h-.682z" transform="rotate(90 422 199)"/>
    </g>
</svg>
