<svg xmlns="http://www.w3.org/2000/svg" width="1309" height="587" viewBox="0 0 1309 587">
    <defs>
        <path id="a" d="M215.023 0c-15.213.037-30.39 2.466-44.261 9.037-37.787 17.905-60.317 57.782-73.111 95.965-12.815 38.246-18.757 79.745-11.534 119.758 7.692 42.603 30.053 82.28 66.289 106.761 31.565 21.325 69.55 33.285 107.34 36.533 67.385 5.786 136.612-15.1 188.052-59.16 6.306-6.91 12.485-13.957 17.676-21.759 10.669-16.035 17.793-37.543 7.577-55.591-9.966-17.61-30.479-28.74-48.71-35.761-19.089-7.356-39.137-11.739-58.848-17.032-19.458-5.226-41.556-10.544-45.637-33.45-7.442-41.767-.074-91.09-34.332-123.135C270.642 8.246 249.734 2.423 229.89.667 225.17.25 220.415.01 215.66 0h-.637z"/>
        <linearGradient id="b" x1="64.365%" x2="0%" y1="6.366%" y2="93.634%">
            <stop offset="0%" stop-color="#4BDCFF"/>
            <stop offset="100%" stop-color="#05A1F7"/>
        </linearGradient>
        <path id="c" d="M418.268 121.289c-13.093 12.56-13.753 33.138-1.473 45.958 12.277 12.82 32.844 13.029 45.938.464 13.092-12.563 13.751-33.139 1.474-45.958-6.22-6.495-14.568-9.753-22.994-9.753-8.205 0-16.486 3.09-22.945 9.289"/>
        <linearGradient id="d" x1="64.365%" x2="32.838%" y1="0%" y2="74.557%">
            <stop offset="0%" stop-color="#4BDCFF"/>
            <stop offset="100%" stop-color="#00B1F5"/>
        </linearGradient>
        <linearGradient id="e" x1="64.168%" x2="33.074%" y1="0%" y2="74.557%">
            <stop offset="0%" stop-color="#4BDCFF"/>
            <stop offset="100%" stop-color="#00B1F5"/>
        </linearGradient>
        <path id="f" d="M356.39 113.006c-6.978 6.88-7.211 18.273-.523 25.452 6.69 7.176 17.766 7.414 24.744.535 6.976-6.878 7.21-18.272.521-25.45-3.435-3.686-8.032-5.543-12.636-5.543-4.354 0-8.715 1.662-12.106 5.006"/>
        <linearGradient id="g" x1="63.578%" x2="33.779%" y1="0%" y2="74.557%">
            <stop offset="0%" stop-color="#4BDCFF"/>
            <stop offset="100%" stop-color="#00B1F5"/>
        </linearGradient>
        <linearGradient id="h" x1="64.004%" x2="33.27%" y1="0%" y2="74.557%">
            <stop offset="0%" stop-color="#4BDCFF"/>
            <stop offset="100%" stop-color="#00B1F5"/>
        </linearGradient>
        <path id="i" d="M492.202 187.329c-72.344 6.022-107.25 74.143-161.925 107.802-11.175 6.88-25.008 15.716-41.373 5.577-7.38-4.576-13.425-11.49-19.239-18.25-5.874-6.831-11.83-13.15-18.77-18.698-30.231-24.169-65.891-29.43-94.432-21.916-31.638 8.326-57.288 29.555-74.72 56.316-8.764 13.454-16.126 28.69-20.086 45.517-3.873 16.458-1.162 33.544 10.314 51.137 19.166 29.377 49.855 51.05 78.259 66.664 29.3 16.112 59.434 27.851 89.195 41.335 29.726 13.463 62.384 29.065 88.5 53.06 15.44 14.186 24.16 30.992 28.407 49.908 4.165 18.53 6.092 37.056 7.715 55.217 3.312 37.017 4.05 73.686 11.232 111.396 3.31 17.39 8.03 37.2 20.676 52.697 11.674 14.306 26.856 17.353 39.451 13.2 13.158-4.343 23.177-13.987 33.006-22.952a462.824 462.824 0 0 0 35.69-36.359c22.636-25.736 42.467-54.33 59.528-85.099.697-1.255 1.733-1.809 2.888-1.858 8.997-11.308 21.33-18.725 32.654-27.446 10.32-7.944 19.375-17.791 22.137-32.303.431-2.263.675-4.629.691-7.062v-.463a37.829 37.829 0 0 0-2.274-12.714c-3.036-8.383-9.22-15.524-15.377-22.17-12.52-13.511-25.33-26.775-27.443-44.51-1.713-14.352 3.945-26.377 9.48-36.986 7.043-13.499 13.48-27.064 17.903-42.376 4.592-15.907 7.598-32.694 9.75-49.819 2.186-17.411 3.456-35.2 4.568-53.033 1.01-16.19 2.106-32.391 1.543-49.099-1.075-31.907-9.77-67.603-37.897-93.63C557.9 197.872 527.231 187 500.225 187c-2.715 0-5.393.111-8.023.329"/>
        <linearGradient id="j" x1="60.64%" x2="12.965%" y1="0%" y2="100%">
            <stop offset="0%" stop-color="#02CEFF"/>
            <stop offset="100%" stop-color="#05A1F7"/>
        </linearGradient>
    </defs>
    <g fill="none" fill-rule="evenodd">
        <path fill="url(#b)" d="M215.023 0c-15.213.037-30.39 2.466-44.261 9.037-37.787 17.905-60.317 57.782-73.111 95.965-12.815 38.246-18.757 79.745-11.534 119.758 7.692 42.603 30.053 82.28 66.289 106.761 31.565 21.325 69.55 33.285 107.34 36.533 67.385 5.786 136.612-15.1 188.052-59.16 6.306-6.91 12.485-13.957 17.676-21.759 10.669-16.035 17.793-37.543 7.577-55.591-9.966-17.61-30.479-28.74-48.71-35.761-19.089-7.356-39.137-11.739-58.848-17.032-19.458-5.226-41.556-10.544-45.637-33.45-7.442-41.767-.074-91.09-34.332-123.135C270.642 8.246 249.734 2.423 229.89.667 225.17.25 220.415.01 215.66 0h-.637z" transform="translate(-200)"/>
        <path fill="url(#d)" d="M418.268 121.289c-13.093 12.56-13.753 33.138-1.473 45.958 12.277 12.82 32.844 13.029 45.938.464 13.092-12.563 13.751-33.139 1.474-45.958-6.22-6.495-14.568-9.753-22.994-9.753-8.205 0-16.486 3.09-22.945 9.289" transform="translate(-200)"/>
        <path fill="url(#e)" d="M1387.749 500.721c-29.007 28.02-30.469 73.925-3.265 102.521 27.199 28.6 72.763 29.065 101.77 1.036 29.003-28.025 30.465-73.924 3.265-102.521-13.78-14.489-32.272-21.757-50.94-21.757-18.176 0-36.522 6.891-50.83 20.721" transform="translate(-200)"/>
        <path fill="url(#g)" d="M356.39 113.006c-6.978 6.88-7.211 18.273-.523 25.452 6.69 7.176 17.766 7.414 24.744.535 6.976-6.878 7.21-18.272.521-25.45-3.435-3.686-8.032-5.543-12.636-5.543-4.354 0-8.715 1.662-12.106 5.006" transform="translate(-200)"/>
        <path fill="url(#h)" d="M1251.013 482.985c-15.551 15.097-16.072 40.1-1.166 55.854 14.91 15.746 39.593 16.27 55.144 1.173 15.547-15.093 16.067-40.097 1.161-55.847-7.656-8.089-17.9-12.165-28.16-12.165-9.704 0-19.424 3.647-26.98 10.985" transform="translate(-200)"/>
        <path fill="url(#j)" d="M432.202 336.329c-72.344 6.022-107.25 74.143-161.925 107.802-11.175 6.88-25.008 15.716-41.373 5.577-7.38-4.576-13.425-11.49-19.239-18.25-5.874-6.831-11.83-13.15-18.77-18.698-30.231-24.169-65.891-29.43-94.432-21.916-31.638 8.326-57.288 29.555-74.72 56.316-8.764 13.454-16.126 28.69-20.086 45.517-3.873 16.458-1.162 33.544 10.314 51.137 19.166 29.377 49.855 51.05 78.259 66.664 29.3 16.112 59.434 27.851 89.195 41.335 29.726 13.463 62.384 29.065 88.5 53.06 15.44 14.186 24.16 30.992 28.407 49.908 4.165 18.53 6.092 37.056 7.715 55.217 3.312 37.017 4.05 73.686 11.232 111.396 3.31 17.39 8.03 37.2 20.676 52.697 11.674 14.306 26.856 17.353 39.451 13.2 13.158-4.343 23.177-13.987 33.006-22.952a462.824 462.824 0 0 0 35.69-36.359c22.636-25.736 42.467-54.33 59.528-85.099.697-1.255 1.733-1.809 2.888-1.858 8.997-11.308 21.33-18.725 32.654-27.446 10.32-7.944 19.375-17.791 22.137-32.303.431-2.263.675-4.629.691-7.062v-.463a37.829 37.829 0 0 0-2.274-12.714c-3.036-8.383-9.22-15.524-15.377-22.17-12.52-13.511-25.33-26.775-27.443-44.51-1.713-14.352 3.945-26.377 9.48-36.986 7.043-13.499 13.48-27.064 17.903-42.376 4.592-15.907 7.598-32.694 9.75-49.819 2.186-17.411 3.456-35.2 4.568-53.033 1.01-16.19 2.106-32.391 1.543-49.099-1.075-31.907-9.77-67.603-37.897-93.63C497.9 346.872 467.231 336 440.225 336c-2.715 0-5.393.111-8.023.329" transform="translate(-200)"/>
        <path fill="url(#j)" d="M632.202 165.329c-72.344 6.022-107.25 74.143-161.925 107.802-11.175 6.88-25.008 15.716-41.373 5.577-7.38-4.576-13.425-11.49-19.239-18.25-5.874-6.831-11.83-13.15-18.77-18.698-30.231-24.169-65.891-29.43-94.432-21.916-31.638 8.326-57.288 29.555-74.72 56.316-8.764 13.454-16.126 28.69-20.086 45.517-3.873 16.458-1.162 33.544 10.314 51.137 19.166 29.377 49.855 51.05 78.259 66.664 29.3 16.112 59.434 27.851 89.195 41.335 29.726 13.463 62.384 29.065 88.5 53.06 15.44 14.186 24.16 30.992 28.407 49.908 4.165 18.53 6.092 37.056 7.715 55.217 3.312 37.017 4.05 73.686 11.232 111.396 3.31 17.39 8.03 37.2 20.676 52.697 11.674 14.306 26.856 17.353 39.451 13.2 13.158-4.343 23.177-13.987 33.006-22.952a462.824 462.824 0 0 0 35.69-36.359c22.636-25.736 42.467-54.33 59.528-85.099.697-1.255 1.733-1.809 2.888-1.858 8.997-11.308 21.33-18.725 32.654-27.446 10.32-7.944 19.375-17.791 22.137-32.303.431-2.263.675-4.629.691-7.062v-.463a37.829 37.829 0 0 0-2.274-12.714c-3.036-8.383-9.22-15.524-15.377-22.17-12.52-13.511-25.33-26.775-27.443-44.51-1.713-14.352 3.945-26.377 9.48-36.986 7.043-13.499 13.48-27.064 17.903-42.376 4.592-15.907 7.598-32.694 9.75-49.819 2.186-17.411 3.456-35.2 4.568-53.033 1.01-16.19 2.106-32.391 1.543-49.099-1.075-31.907-9.77-67.603-37.897-93.63C697.9 175.872 667.231 165 640.225 165c-2.715 0-5.393.111-8.023.329" transform="translate(-200)"/>
    </g>
</svg>
